<mxfile host="app.diagrams.net" modified="2024-05-18T00:01:49.846Z" agent="Mozilla/5.0 (Windows NT 10.0; Win64; x64) AppleWebKit/537.36 (KHTML, like Gecko) Chrome/124.0.0.0 Safari/537.36" etag="SpaqsQCLnQ4XT7aQ3Nol" version="24.4.4" type="device">
  <diagram name="Page-1" id="IXXac6OYDvQR_CGgJ1Zi">
    <mxGraphModel dx="1750" dy="942" grid="1" gridSize="10" guides="1" tooltips="1" connect="1" arrows="1" fold="1" page="1" pageScale="1" pageWidth="850" pageHeight="1100" math="0" shadow="0">
      <root>
        <mxCell id="0" />
        <mxCell id="1" parent="0" />
        <mxCell id="3EkjWw5t4jy6jvHcOLfg-1" value="" style="rounded=0;whiteSpace=wrap;html=1;fillColor=none;" parent="1" vertex="1">
          <mxGeometry x="160" y="100" width="2280" height="950" as="geometry" />
        </mxCell>
        <mxCell id="3EkjWw5t4jy6jvHcOLfg-4" value="" style="ellipse;html=1;shape=endState;fillColor=#000000;strokeColor=#000000;" parent="1" vertex="1">
          <mxGeometry x="2370" y="710" width="30" height="30" as="geometry" />
        </mxCell>
        <mxCell id="3EkjWw5t4jy6jvHcOLfg-5" style="edgeStyle=orthogonalEdgeStyle;rounded=0;orthogonalLoop=1;jettySize=auto;html=1;exitX=1;exitY=0.5;exitDx=0;exitDy=0;exitPerimeter=0;entryX=0;entryY=0.5;entryDx=0;entryDy=0;" parent="1" source="3EkjWw5t4jy6jvHcOLfg-6" target="3EkjWw5t4jy6jvHcOLfg-8" edge="1">
          <mxGeometry relative="1" as="geometry" />
        </mxCell>
        <mxCell id="3EkjWw5t4jy6jvHcOLfg-6" value="" style="verticalLabelPosition=bottom;verticalAlign=top;html=1;shape=mxgraph.flowchart.on-page_reference;fillColor=#000000;" parent="1" vertex="1">
          <mxGeometry x="190" y="385" width="30" height="30" as="geometry" />
        </mxCell>
        <mxCell id="3EkjWw5t4jy6jvHcOLfg-7" style="edgeStyle=orthogonalEdgeStyle;rounded=0;orthogonalLoop=1;jettySize=auto;html=1;exitX=1;exitY=0.5;exitDx=0;exitDy=0;entryX=0;entryY=0.5;entryDx=0;entryDy=0;" parent="1" source="3EkjWw5t4jy6jvHcOLfg-8" target="3EkjWw5t4jy6jvHcOLfg-71" edge="1">
          <mxGeometry relative="1" as="geometry" />
        </mxCell>
        <mxCell id="3EkjWw5t4jy6jvHcOLfg-8" value="Professor -&amp;nbsp;acessa página do histórico dos formulários enviados" style="rounded=1;whiteSpace=wrap;html=1;fillColor=#CCE5FF;" parent="1" vertex="1">
          <mxGeometry x="270" y="370" width="130" height="60" as="geometry" />
        </mxCell>
        <mxCell id="HV80x1tlVx-LBfXgwce5-30" style="edgeStyle=orthogonalEdgeStyle;rounded=0;orthogonalLoop=1;jettySize=auto;html=1;exitX=0.5;exitY=1;exitDx=0;exitDy=0;entryX=0;entryY=0.5;entryDx=0;entryDy=0;" edge="1" parent="1" source="3EkjWw5t4jy6jvHcOLfg-16" target="HV80x1tlVx-LBfXgwce5-27">
          <mxGeometry relative="1" as="geometry" />
        </mxCell>
        <mxCell id="HV80x1tlVx-LBfXgwce5-34" value="Professor deseja &lt;br&gt;filtrar os formulários" style="edgeLabel;html=1;align=center;verticalAlign=middle;resizable=0;points=[];" vertex="1" connectable="0" parent="HV80x1tlVx-LBfXgwce5-30">
          <mxGeometry x="-0.1171" relative="1" as="geometry">
            <mxPoint as="offset" />
          </mxGeometry>
        </mxCell>
        <mxCell id="HV80x1tlVx-LBfXgwce5-32" style="edgeStyle=orthogonalEdgeStyle;rounded=0;orthogonalLoop=1;jettySize=auto;html=1;exitX=1;exitY=0.5;exitDx=0;exitDy=0;entryX=0;entryY=0.5;entryDx=0;entryDy=0;" edge="1" parent="1" source="3EkjWw5t4jy6jvHcOLfg-16" target="3EkjWw5t4jy6jvHcOLfg-21">
          <mxGeometry relative="1" as="geometry">
            <Array as="points">
              <mxPoint x="1520" y="400" />
            </Array>
          </mxGeometry>
        </mxCell>
        <mxCell id="HV80x1tlVx-LBfXgwce5-38" value="Professor não deseja&lt;br&gt;filtrar os formulários" style="edgeLabel;html=1;align=center;verticalAlign=middle;resizable=0;points=[];" vertex="1" connectable="0" parent="HV80x1tlVx-LBfXgwce5-32">
          <mxGeometry x="-0.3668" y="-3" relative="1" as="geometry">
            <mxPoint x="85" y="-3" as="offset" />
          </mxGeometry>
        </mxCell>
        <mxCell id="3EkjWw5t4jy6jvHcOLfg-16" value="" style="rhombus;whiteSpace=wrap;html=1;" parent="1" vertex="1">
          <mxGeometry x="1090" y="380" width="35" height="40" as="geometry" />
        </mxCell>
        <mxCell id="3EkjWw5t4jy6jvHcOLfg-17" style="edgeStyle=orthogonalEdgeStyle;rounded=0;orthogonalLoop=1;jettySize=auto;html=1;exitX=1;exitY=0.5;exitDx=0;exitDy=0;entryX=0;entryY=0.5;entryDx=0;entryDy=0;" parent="1" source="3EkjWw5t4jy6jvHcOLfg-18" target="3EkjWw5t4jy6jvHcOLfg-16" edge="1">
          <mxGeometry relative="1" as="geometry" />
        </mxCell>
        <mxCell id="3EkjWw5t4jy6jvHcOLfg-18" value="Sistema - Exibe os formulários enviados pelo professor" style="rounded=1;whiteSpace=wrap;html=1;fillColor=#CCE5FF;" parent="1" vertex="1">
          <mxGeometry x="900" y="370" width="120" height="60" as="geometry" />
        </mxCell>
        <mxCell id="HV80x1tlVx-LBfXgwce5-54" style="edgeStyle=orthogonalEdgeStyle;rounded=0;orthogonalLoop=1;jettySize=auto;html=1;exitX=1;exitY=0.5;exitDx=0;exitDy=0;entryX=0;entryY=0.5;entryDx=0;entryDy=0;" edge="1" parent="1" source="3EkjWw5t4jy6jvHcOLfg-21" target="HV80x1tlVx-LBfXgwce5-24">
          <mxGeometry relative="1" as="geometry" />
        </mxCell>
        <mxCell id="3EkjWw5t4jy6jvHcOLfg-21" value="Professor - Solicita a visualização de um formulário específico" style="rounded=1;whiteSpace=wrap;html=1;fillColor=#CCE5FF;" parent="1" vertex="1">
          <mxGeometry x="1520" y="370" width="120" height="60" as="geometry" />
        </mxCell>
        <mxCell id="3EkjWw5t4jy6jvHcOLfg-47" value="&lt;span style=&quot;font-size: 40px;&quot;&gt;&lt;b&gt;Professor - Visualizar Formulários Enviados&lt;/b&gt;&lt;/span&gt;" style="text;html=1;align=center;verticalAlign=middle;whiteSpace=wrap;rounded=0;" parent="1" vertex="1">
          <mxGeometry x="160" y="140" width="2280" height="30" as="geometry" />
        </mxCell>
        <mxCell id="HV80x1tlVx-LBfXgwce5-41" style="edgeStyle=orthogonalEdgeStyle;rounded=0;orthogonalLoop=1;jettySize=auto;html=1;exitX=0.5;exitY=1;exitDx=0;exitDy=0;entryX=0;entryY=0.75;entryDx=0;entryDy=0;" edge="1" parent="1" source="3EkjWw5t4jy6jvHcOLfg-51" target="HV80x1tlVx-LBfXgwce5-39">
          <mxGeometry relative="1" as="geometry" />
        </mxCell>
        <mxCell id="3EkjWw5t4jy6jvHcOLfg-51" value="Professor - Informa data dos formulários para filtro" style="rounded=1;whiteSpace=wrap;html=1;fillColor=#CCE5FF;arcSize=15;" parent="1" vertex="1">
          <mxGeometry x="900" y="570" width="120" height="60" as="geometry" />
        </mxCell>
        <mxCell id="HV80x1tlVx-LBfXgwce5-40" style="edgeStyle=orthogonalEdgeStyle;rounded=0;orthogonalLoop=1;jettySize=auto;html=1;exitX=0.5;exitY=1;exitDx=0;exitDy=0;entryX=0;entryY=0.5;entryDx=0;entryDy=0;" edge="1" parent="1" source="3EkjWw5t4jy6jvHcOLfg-53" target="HV80x1tlVx-LBfXgwce5-39">
          <mxGeometry relative="1" as="geometry" />
        </mxCell>
        <mxCell id="3EkjWw5t4jy6jvHcOLfg-53" value="Professor - Informa tipo dos formulários para filtro" style="rounded=1;whiteSpace=wrap;html=1;fillColor=#CCE5FF;arcSize=15;" parent="1" vertex="1">
          <mxGeometry x="1047.5" y="570" width="120" height="60" as="geometry" />
        </mxCell>
        <mxCell id="HV80x1tlVx-LBfXgwce5-52" style="edgeStyle=orthogonalEdgeStyle;rounded=0;orthogonalLoop=1;jettySize=auto;html=1;exitX=0.5;exitY=0;exitDx=0;exitDy=0;entryX=0.5;entryY=1;entryDx=0;entryDy=0;" edge="1" parent="1" source="3EkjWw5t4jy6jvHcOLfg-64" target="3EkjWw5t4jy6jvHcOLfg-21">
          <mxGeometry relative="1" as="geometry" />
        </mxCell>
        <mxCell id="3EkjWw5t4jy6jvHcOLfg-64" value="Sistema - Exibe formulários que atendem aos filtros" style="rounded=1;whiteSpace=wrap;html=1;fillColor=#CCE5FF;" parent="1" vertex="1">
          <mxGeometry x="1520" y="740" width="120" height="60" as="geometry" />
        </mxCell>
        <mxCell id="HV80x1tlVx-LBfXgwce5-2" style="edgeStyle=orthogonalEdgeStyle;rounded=0;orthogonalLoop=1;jettySize=auto;html=1;exitX=1;exitY=0.5;exitDx=0;exitDy=0;entryX=0;entryY=0.5;entryDx=0;entryDy=0;" edge="1" parent="1" source="3EkjWw5t4jy6jvHcOLfg-70" target="HV80x1tlVx-LBfXgwce5-17">
          <mxGeometry relative="1" as="geometry" />
        </mxCell>
        <mxCell id="HV80x1tlVx-LBfXgwce5-15" value="Há formulários nos &lt;br&gt;parâmetros fornecidos" style="edgeLabel;html=1;align=center;verticalAlign=middle;resizable=0;points=[];" vertex="1" connectable="0" parent="HV80x1tlVx-LBfXgwce5-2">
          <mxGeometry x="-0.4399" relative="1" as="geometry">
            <mxPoint x="36" as="offset" />
          </mxGeometry>
        </mxCell>
        <mxCell id="HV80x1tlVx-LBfXgwce5-20" style="edgeStyle=orthogonalEdgeStyle;rounded=0;orthogonalLoop=1;jettySize=auto;html=1;exitX=0.5;exitY=1;exitDx=0;exitDy=0;entryX=0.5;entryY=0;entryDx=0;entryDy=0;" edge="1" parent="1" source="3EkjWw5t4jy6jvHcOLfg-70" target="HV80x1tlVx-LBfXgwce5-21">
          <mxGeometry relative="1" as="geometry" />
        </mxCell>
        <mxCell id="HV80x1tlVx-LBfXgwce5-45" value="&lt;span style=&quot;color: rgba(0, 0, 0, 0); font-family: monospace; font-size: 0px; text-align: start; background-color: rgb(251, 251, 251);&quot;&gt;%3CmxGraphModel%3E%3Croot%3E%3CmxCell%20id%3D%220%22%2F%3E%3CmxCell%20id%3D%221%22%20parent%3D%220%22%2F%3E%3CmxCell%20id%3D%222%22%20value%3D%22H%C3%A1%20formul%C3%A1rios%20nos%20%26lt%3Bbr%26gt%3Bpar%C3%A2metros%20fornecidos%22%20style%3D%22edgeLabel%3Bhtml%3D1%3Balign%3Dcenter%3BverticalAlign%3Dmiddle%3Bresizable%3D0%3Bpoints%3D%5B%5D%3B%22%20vertex%3D%221%22%20connectable%3D%220%22%20parent%3D%221%22%3E%3CmxGeometry%20x%3D%221209.5714285714284%22%20y%3D%22770%22%20as%3D%22geometry%22%2F%3E%3C%2FmxCell%3E%3C%2Froot%3E%3C%2FmxGraphModel%3E&lt;/span&gt;&lt;span style=&quot;color: rgba(0, 0, 0, 0); font-family: monospace; font-size: 0px; text-align: start; background-color: rgb(251, 251, 251);&quot;&gt;%3CmxGraphModel%3E%3Croot%3E%3CmxCell%20id%3D%220%22%2F%3E%3CmxCell%20id%3D%221%22%20parent%3D%220%22%2F%3E%3CmxCell%20id%3D%222%22%20value%3D%22H%C3%A1%20formul%C3%A1rios%20nos%20%26lt%3Bbr%26gt%3Bpar%C3%A2metros%20fornecidos%22%20style%3D%22edgeLabel%3Bhtml%3D1%3Balign%3Dcenter%3BverticalAlign%3Dmiddle%3Bresizable%3D0%3Bpoints%3D%5B%5D%3B%22%20vertex%3D%221%22%20connectable%3D%220%22%20parent%3D%221%22%3E%3CmxGeometry%20x%3D%221209.5714285714284%22%20y%3D%22770%22%20as%3D%22geometry%22%2F%3E%3C%2FmxCell%3E%3C%2Froot%3E%3C%2FmxGraphModel%3E&lt;/span&gt;" style="edgeLabel;html=1;align=center;verticalAlign=middle;resizable=0;points=[];" vertex="1" connectable="0" parent="HV80x1tlVx-LBfXgwce5-20">
          <mxGeometry x="-0.2202" relative="1" as="geometry">
            <mxPoint as="offset" />
          </mxGeometry>
        </mxCell>
        <mxCell id="HV80x1tlVx-LBfXgwce5-46" value="Não há formulários &lt;br&gt;nos parâmetros fornecidos" style="edgeLabel;html=1;align=center;verticalAlign=middle;resizable=0;points=[];" vertex="1" connectable="0" parent="HV80x1tlVx-LBfXgwce5-20">
          <mxGeometry x="-0.0633" y="1" relative="1" as="geometry">
            <mxPoint as="offset" />
          </mxGeometry>
        </mxCell>
        <mxCell id="3EkjWw5t4jy6jvHcOLfg-70" value="" style="rhombus;whiteSpace=wrap;html=1;" parent="1" vertex="1">
          <mxGeometry x="1090" y="750" width="35" height="40" as="geometry" />
        </mxCell>
        <mxCell id="3EkjWw5t4jy6jvHcOLfg-72" style="edgeStyle=orthogonalEdgeStyle;rounded=0;orthogonalLoop=1;jettySize=auto;html=1;exitX=1;exitY=0.5;exitDx=0;exitDy=0;entryX=0;entryY=0.5;entryDx=0;entryDy=0;" parent="1" source="3EkjWw5t4jy6jvHcOLfg-71" target="HV80x1tlVx-LBfXgwce5-5" edge="1">
          <mxGeometry relative="1" as="geometry" />
        </mxCell>
        <mxCell id="3EkjWw5t4jy6jvHcOLfg-73" value="Possui formulários enviados" style="edgeLabel;html=1;align=center;verticalAlign=middle;resizable=0;points=[];" parent="3EkjWw5t4jy6jvHcOLfg-72" vertex="1" connectable="0">
          <mxGeometry x="-0.3508" y="3" relative="1" as="geometry">
            <mxPoint x="31" y="3" as="offset" />
          </mxGeometry>
        </mxCell>
        <mxCell id="3EkjWw5t4jy6jvHcOLfg-74" style="edgeStyle=orthogonalEdgeStyle;rounded=0;orthogonalLoop=1;jettySize=auto;html=1;exitX=0.5;exitY=1;exitDx=0;exitDy=0;entryX=0.5;entryY=0;entryDx=0;entryDy=0;" parent="1" source="3EkjWw5t4jy6jvHcOLfg-71" target="HV80x1tlVx-LBfXgwce5-3" edge="1">
          <mxGeometry relative="1" as="geometry" />
        </mxCell>
        <mxCell id="3EkjWw5t4jy6jvHcOLfg-75" value="Não possui &lt;br&gt;formulários enviados" style="edgeLabel;html=1;align=center;verticalAlign=middle;resizable=0;points=[];" parent="3EkjWw5t4jy6jvHcOLfg-74" vertex="1" connectable="0">
          <mxGeometry x="-0.9291" y="2" relative="1" as="geometry">
            <mxPoint x="-2" y="40" as="offset" />
          </mxGeometry>
        </mxCell>
        <mxCell id="3EkjWw5t4jy6jvHcOLfg-71" value="" style="rhombus;whiteSpace=wrap;html=1;" parent="1" vertex="1">
          <mxGeometry x="450" y="380" width="35" height="40" as="geometry" />
        </mxCell>
        <mxCell id="HV80x1tlVx-LBfXgwce5-4" style="edgeStyle=orthogonalEdgeStyle;rounded=0;orthogonalLoop=1;jettySize=auto;html=1;exitX=0.5;exitY=1;exitDx=0;exitDy=0;entryX=0.5;entryY=1;entryDx=0;entryDy=0;" edge="1" parent="1" source="HV80x1tlVx-LBfXgwce5-3" target="3EkjWw5t4jy6jvHcOLfg-4">
          <mxGeometry relative="1" as="geometry">
            <Array as="points">
              <mxPoint x="468" y="1010" />
              <mxPoint x="2385" y="1010" />
            </Array>
          </mxGeometry>
        </mxCell>
        <mxCell id="HV80x1tlVx-LBfXgwce5-3" value="Sistema - Exibe a mensagem: &lt;br&gt;&quot;Nenhum Resultado.&quot;" style="rounded=1;whiteSpace=wrap;html=1;fillColor=#CCE5FF;" vertex="1" parent="1">
          <mxGeometry x="407.5" y="520" width="120" height="60" as="geometry" />
        </mxCell>
        <mxCell id="HV80x1tlVx-LBfXgwce5-7" style="edgeStyle=orthogonalEdgeStyle;rounded=0;orthogonalLoop=1;jettySize=auto;html=1;exitX=1;exitY=0.5;exitDx=0;exitDy=0;entryX=0;entryY=0.5;entryDx=0;entryDy=0;" edge="1" parent="1" source="HV80x1tlVx-LBfXgwce5-5" target="3EkjWw5t4jy6jvHcOLfg-18">
          <mxGeometry relative="1" as="geometry" />
        </mxCell>
        <mxCell id="HV80x1tlVx-LBfXgwce5-9" value="Lista de formulários &lt;br&gt;gerada com sucesso" style="edgeLabel;html=1;align=center;verticalAlign=middle;resizable=0;points=[];" vertex="1" connectable="0" parent="HV80x1tlVx-LBfXgwce5-7">
          <mxGeometry x="-0.1469" y="2" relative="1" as="geometry">
            <mxPoint x="12" y="2" as="offset" />
          </mxGeometry>
        </mxCell>
        <mxCell id="HV80x1tlVx-LBfXgwce5-10" style="edgeStyle=orthogonalEdgeStyle;rounded=0;orthogonalLoop=1;jettySize=auto;html=1;exitX=0.5;exitY=1;exitDx=0;exitDy=0;entryX=0.5;entryY=0;entryDx=0;entryDy=0;" edge="1" parent="1" source="HV80x1tlVx-LBfXgwce5-5" target="HV80x1tlVx-LBfXgwce5-12">
          <mxGeometry relative="1" as="geometry" />
        </mxCell>
        <mxCell id="HV80x1tlVx-LBfXgwce5-11" value="Erro ao gerar &lt;br&gt;lista de formulários" style="edgeLabel;html=1;align=center;verticalAlign=middle;resizable=0;points=[];" vertex="1" connectable="0" parent="HV80x1tlVx-LBfXgwce5-10">
          <mxGeometry x="-0.5281" y="-1" relative="1" as="geometry">
            <mxPoint x="1" y="16" as="offset" />
          </mxGeometry>
        </mxCell>
        <mxCell id="HV80x1tlVx-LBfXgwce5-5" value="" style="rhombus;whiteSpace=wrap;html=1;" vertex="1" parent="1">
          <mxGeometry x="670" y="380" width="35" height="40" as="geometry" />
        </mxCell>
        <mxCell id="HV80x1tlVx-LBfXgwce5-13" style="edgeStyle=orthogonalEdgeStyle;rounded=0;orthogonalLoop=1;jettySize=auto;html=1;exitX=0.5;exitY=1;exitDx=0;exitDy=0;entryX=0.5;entryY=1;entryDx=0;entryDy=0;" edge="1" parent="1" source="HV80x1tlVx-LBfXgwce5-12" target="3EkjWw5t4jy6jvHcOLfg-4">
          <mxGeometry relative="1" as="geometry">
            <Array as="points">
              <mxPoint x="688" y="1010" />
              <mxPoint x="2385" y="1010" />
            </Array>
          </mxGeometry>
        </mxCell>
        <mxCell id="HV80x1tlVx-LBfXgwce5-12" value="Sistema - Exibe a mensagem: &lt;br&gt;&quot;Erro na exibição.&quot;" style="rounded=1;whiteSpace=wrap;html=1;fillColor=#CCE5FF;" vertex="1" parent="1">
          <mxGeometry x="627.5" y="520" width="120" height="60" as="geometry" />
        </mxCell>
        <mxCell id="HV80x1tlVx-LBfXgwce5-18" style="edgeStyle=orthogonalEdgeStyle;rounded=0;orthogonalLoop=1;jettySize=auto;html=1;exitX=1;exitY=0.5;exitDx=0;exitDy=0;entryX=0;entryY=0.5;entryDx=0;entryDy=0;" edge="1" parent="1" source="HV80x1tlVx-LBfXgwce5-17" target="3EkjWw5t4jy6jvHcOLfg-64">
          <mxGeometry relative="1" as="geometry" />
        </mxCell>
        <mxCell id="HV80x1tlVx-LBfXgwce5-19" value="Lista filtrada&lt;br&gt;gerada com sucesso" style="edgeLabel;html=1;align=center;verticalAlign=middle;resizable=0;points=[];" vertex="1" connectable="0" parent="HV80x1tlVx-LBfXgwce5-18">
          <mxGeometry x="-0.0813" y="1" relative="1" as="geometry">
            <mxPoint as="offset" />
          </mxGeometry>
        </mxCell>
        <mxCell id="HV80x1tlVx-LBfXgwce5-17" value="" style="rhombus;whiteSpace=wrap;html=1;" vertex="1" parent="1">
          <mxGeometry x="1300" y="750" width="35" height="40" as="geometry" />
        </mxCell>
        <mxCell id="HV80x1tlVx-LBfXgwce5-83" style="edgeStyle=orthogonalEdgeStyle;rounded=0;orthogonalLoop=1;jettySize=auto;html=1;exitX=0.5;exitY=1;exitDx=0;exitDy=0;entryX=0.5;entryY=1;entryDx=0;entryDy=0;" edge="1" parent="1" source="HV80x1tlVx-LBfXgwce5-21" target="3EkjWw5t4jy6jvHcOLfg-4">
          <mxGeometry relative="1" as="geometry">
            <Array as="points">
              <mxPoint x="1108" y="1010" />
              <mxPoint x="2385" y="1010" />
            </Array>
          </mxGeometry>
        </mxCell>
        <mxCell id="HV80x1tlVx-LBfXgwce5-21" value="Sistema - Exibe a mensagem:&lt;br&gt;&quot;Nenhum Resultado.&quot;" style="rounded=1;whiteSpace=wrap;html=1;fillColor=#CCE5FF;" vertex="1" parent="1">
          <mxGeometry x="1047.5" y="900" width="120" height="60" as="geometry" />
        </mxCell>
        <mxCell id="HV80x1tlVx-LBfXgwce5-58" style="edgeStyle=orthogonalEdgeStyle;rounded=0;orthogonalLoop=1;jettySize=auto;html=1;exitX=1;exitY=0.5;exitDx=0;exitDy=0;entryX=1;entryY=0.5;entryDx=0;entryDy=0;" edge="1" parent="1" source="HV80x1tlVx-LBfXgwce5-24" target="HV80x1tlVx-LBfXgwce5-65">
          <mxGeometry relative="1" as="geometry">
            <mxPoint x="1910" y="400" as="targetPoint" />
          </mxGeometry>
        </mxCell>
        <mxCell id="HV80x1tlVx-LBfXgwce5-59" value="Detalhes do formulário &lt;br&gt;carregados com sucesso" style="edgeLabel;html=1;align=center;verticalAlign=middle;resizable=0;points=[];" vertex="1" connectable="0" parent="HV80x1tlVx-LBfXgwce5-58">
          <mxGeometry x="-0.2515" y="4" relative="1" as="geometry">
            <mxPoint x="18" y="4" as="offset" />
          </mxGeometry>
        </mxCell>
        <mxCell id="HV80x1tlVx-LBfXgwce5-60" style="edgeStyle=orthogonalEdgeStyle;rounded=0;orthogonalLoop=1;jettySize=auto;html=1;exitX=0.5;exitY=1;exitDx=0;exitDy=0;entryX=1;entryY=0.5;entryDx=0;entryDy=0;" edge="1" parent="1" source="HV80x1tlVx-LBfXgwce5-24" target="HV80x1tlVx-LBfXgwce5-50">
          <mxGeometry relative="1" as="geometry" />
        </mxCell>
        <mxCell id="HV80x1tlVx-LBfXgwce5-61" value="Erro ao buscar dados &lt;br&gt;do formulário selecionado" style="edgeLabel;html=1;align=center;verticalAlign=middle;resizable=0;points=[];" vertex="1" connectable="0" parent="HV80x1tlVx-LBfXgwce5-60">
          <mxGeometry x="-0.8209" y="-1" relative="1" as="geometry">
            <mxPoint as="offset" />
          </mxGeometry>
        </mxCell>
        <mxCell id="HV80x1tlVx-LBfXgwce5-24" value="" style="rhombus;whiteSpace=wrap;html=1;" vertex="1" parent="1">
          <mxGeometry x="1690" y="380" width="35" height="40" as="geometry" />
        </mxCell>
        <mxCell id="HV80x1tlVx-LBfXgwce5-35" style="edgeStyle=orthogonalEdgeStyle;rounded=0;orthogonalLoop=1;jettySize=auto;html=1;exitX=1;exitY=0.5;exitDx=0;exitDy=0;entryX=0.5;entryY=0;entryDx=0;entryDy=0;" edge="1" parent="1" source="HV80x1tlVx-LBfXgwce5-27" target="3EkjWw5t4jy6jvHcOLfg-53">
          <mxGeometry relative="1" as="geometry" />
        </mxCell>
        <mxCell id="HV80x1tlVx-LBfXgwce5-36" style="edgeStyle=orthogonalEdgeStyle;rounded=0;orthogonalLoop=1;jettySize=auto;html=1;exitX=1;exitY=0.75;exitDx=0;exitDy=0;entryX=0.5;entryY=0;entryDx=0;entryDy=0;" edge="1" parent="1" source="HV80x1tlVx-LBfXgwce5-27" target="3EkjWw5t4jy6jvHcOLfg-51">
          <mxGeometry relative="1" as="geometry" />
        </mxCell>
        <mxCell id="HV80x1tlVx-LBfXgwce5-37" style="edgeStyle=orthogonalEdgeStyle;rounded=0;orthogonalLoop=1;jettySize=auto;html=1;exitX=1;exitY=0.25;exitDx=0;exitDy=0;entryX=0.5;entryY=0;entryDx=0;entryDy=0;" edge="1" parent="1" source="HV80x1tlVx-LBfXgwce5-27" target="3EkjWw5t4jy6jvHcOLfg-54">
          <mxGeometry relative="1" as="geometry" />
        </mxCell>
        <mxCell id="HV80x1tlVx-LBfXgwce5-27" value="" style="rounded=1;whiteSpace=wrap;html=1;arcSize=40;fillColor=#000000;direction=south;" vertex="1" parent="1">
          <mxGeometry x="1032.5" y="500" width="150" height="20" as="geometry" />
        </mxCell>
        <mxCell id="HV80x1tlVx-LBfXgwce5-42" style="edgeStyle=orthogonalEdgeStyle;rounded=0;orthogonalLoop=1;jettySize=auto;html=1;exitX=0.5;exitY=1;exitDx=0;exitDy=0;entryX=0;entryY=0.25;entryDx=0;entryDy=0;" edge="1" parent="1" source="3EkjWw5t4jy6jvHcOLfg-54" target="HV80x1tlVx-LBfXgwce5-39">
          <mxGeometry relative="1" as="geometry" />
        </mxCell>
        <mxCell id="3EkjWw5t4jy6jvHcOLfg-54" value="Professor - Informa &quot;status&quot; dos formulário para filtro" style="rounded=1;whiteSpace=wrap;html=1;fillColor=#CCE5FF;arcSize=15;" parent="1" vertex="1">
          <mxGeometry x="1200" y="570" width="120" height="60" as="geometry" />
        </mxCell>
        <mxCell id="HV80x1tlVx-LBfXgwce5-44" style="edgeStyle=orthogonalEdgeStyle;rounded=0;orthogonalLoop=1;jettySize=auto;html=1;exitX=1;exitY=0.5;exitDx=0;exitDy=0;entryX=0.5;entryY=0;entryDx=0;entryDy=0;" edge="1" parent="1" source="HV80x1tlVx-LBfXgwce5-39" target="3EkjWw5t4jy6jvHcOLfg-70">
          <mxGeometry relative="1" as="geometry" />
        </mxCell>
        <mxCell id="HV80x1tlVx-LBfXgwce5-39" value="" style="rounded=1;whiteSpace=wrap;html=1;arcSize=40;fillColor=#000000;direction=south;" vertex="1" parent="1">
          <mxGeometry x="1032.5" y="680" width="150" height="20" as="geometry" />
        </mxCell>
        <mxCell id="HV80x1tlVx-LBfXgwce5-47" style="edgeStyle=orthogonalEdgeStyle;rounded=0;orthogonalLoop=1;jettySize=auto;html=1;exitX=0.5;exitY=1;exitDx=0;exitDy=0;entryX=0.5;entryY=0;entryDx=0;entryDy=0;" edge="1" parent="1" target="HV80x1tlVx-LBfXgwce5-50">
          <mxGeometry relative="1" as="geometry">
            <mxPoint x="1318" y="790" as="sourcePoint" />
          </mxGeometry>
        </mxCell>
        <mxCell id="HV80x1tlVx-LBfXgwce5-48" value="&lt;span style=&quot;color: rgba(0, 0, 0, 0); font-family: monospace; font-size: 0px; text-align: start; background-color: rgb(251, 251, 251);&quot;&gt;%3CmxGraphModel%3E%3Croot%3E%3CmxCell%20id%3D%220%22%2F%3E%3CmxCell%20id%3D%221%22%20parent%3D%220%22%2F%3E%3CmxCell%20id%3D%222%22%20value%3D%22H%C3%A1%20formul%C3%A1rios%20nos%20%26lt%3Bbr%26gt%3Bpar%C3%A2metros%20fornecidos%22%20style%3D%22edgeLabel%3Bhtml%3D1%3Balign%3Dcenter%3BverticalAlign%3Dmiddle%3Bresizable%3D0%3Bpoints%3D%5B%5D%3B%22%20vertex%3D%221%22%20connectable%3D%220%22%20parent%3D%221%22%3E%3CmxGeometry%20x%3D%221209.5714285714284%22%20y%3D%22770%22%20as%3D%22geometry%22%2F%3E%3C%2FmxCell%3E%3C%2Froot%3E%3C%2FmxGraphModel%3E&lt;/span&gt;&lt;span style=&quot;color: rgba(0, 0, 0, 0); font-family: monospace; font-size: 0px; text-align: start; background-color: rgb(251, 251, 251);&quot;&gt;%3CmxGraphModel%3E%3Croot%3E%3CmxCell%20id%3D%220%22%2F%3E%3CmxCell%20id%3D%221%22%20parent%3D%220%22%2F%3E%3CmxCell%20id%3D%222%22%20value%3D%22H%C3%A1%20formul%C3%A1rios%20nos%20%26lt%3Bbr%26gt%3Bpar%C3%A2metros%20fornecidos%22%20style%3D%22edgeLabel%3Bhtml%3D1%3Balign%3Dcenter%3BverticalAlign%3Dmiddle%3Bresizable%3D0%3Bpoints%3D%5B%5D%3B%22%20vertex%3D%221%22%20connectable%3D%220%22%20parent%3D%221%22%3E%3CmxGeometry%20x%3D%221209.5714285714284%22%20y%3D%22770%22%20as%3D%22geometry%22%2F%3E%3C%2FmxCell%3E%3C%2Froot%3E%3C%2FmxGraphModel%3E&lt;/span&gt;" style="edgeLabel;html=1;align=center;verticalAlign=middle;resizable=0;points=[];" vertex="1" connectable="0" parent="HV80x1tlVx-LBfXgwce5-47">
          <mxGeometry x="-0.2202" relative="1" as="geometry">
            <mxPoint as="offset" />
          </mxGeometry>
        </mxCell>
        <mxCell id="HV80x1tlVx-LBfXgwce5-49" value="Erro ao gerar&lt;br&gt;lista de formulários" style="edgeLabel;html=1;align=center;verticalAlign=middle;resizable=0;points=[];" vertex="1" connectable="0" parent="HV80x1tlVx-LBfXgwce5-47">
          <mxGeometry x="-0.0633" y="1" relative="1" as="geometry">
            <mxPoint as="offset" />
          </mxGeometry>
        </mxCell>
        <mxCell id="HV80x1tlVx-LBfXgwce5-84" style="edgeStyle=orthogonalEdgeStyle;rounded=0;orthogonalLoop=1;jettySize=auto;html=1;exitX=0.5;exitY=1;exitDx=0;exitDy=0;entryX=0.5;entryY=1;entryDx=0;entryDy=0;" edge="1" parent="1" source="HV80x1tlVx-LBfXgwce5-50" target="3EkjWw5t4jy6jvHcOLfg-4">
          <mxGeometry relative="1" as="geometry">
            <mxPoint x="2320" y="770" as="targetPoint" />
            <Array as="points">
              <mxPoint x="1318" y="1010" />
              <mxPoint x="2385" y="1010" />
            </Array>
          </mxGeometry>
        </mxCell>
        <mxCell id="HV80x1tlVx-LBfXgwce5-50" value="Sistema - Exibe a mensagem:&lt;br&gt;&quot;Erro na exibição.&quot;" style="rounded=1;whiteSpace=wrap;html=1;fillColor=#CCE5FF;" vertex="1" parent="1">
          <mxGeometry x="1257.5" y="900" width="120" height="60" as="geometry" />
        </mxCell>
        <mxCell id="HV80x1tlVx-LBfXgwce5-69" style="edgeStyle=orthogonalEdgeStyle;rounded=0;orthogonalLoop=1;jettySize=auto;html=1;exitX=0;exitY=0.75;exitDx=0;exitDy=0;entryX=0;entryY=0.5;entryDx=0;entryDy=0;" edge="1" parent="1" source="HV80x1tlVx-LBfXgwce5-65">
          <mxGeometry relative="1" as="geometry">
            <mxPoint x="1970" y="362" as="targetPoint" />
          </mxGeometry>
        </mxCell>
        <mxCell id="HV80x1tlVx-LBfXgwce5-71" style="edgeStyle=orthogonalEdgeStyle;rounded=0;orthogonalLoop=1;jettySize=auto;html=1;exitX=0;exitY=0.25;exitDx=0;exitDy=0;entryX=0;entryY=0.5;entryDx=0;entryDy=0;" edge="1" parent="1" source="HV80x1tlVx-LBfXgwce5-65" target="HV80x1tlVx-LBfXgwce5-72">
          <mxGeometry relative="1" as="geometry" />
        </mxCell>
        <mxCell id="HV80x1tlVx-LBfXgwce5-65" value="" style="rounded=1;whiteSpace=wrap;html=1;arcSize=40;fillColor=#000000;direction=south;rotation=90;" vertex="1" parent="1">
          <mxGeometry x="1840" y="390" width="150" height="20" as="geometry" />
        </mxCell>
        <mxCell id="HV80x1tlVx-LBfXgwce5-80" style="edgeStyle=orthogonalEdgeStyle;rounded=0;orthogonalLoop=1;jettySize=auto;html=1;exitX=1;exitY=0.5;exitDx=0;exitDy=0;entryX=0.5;entryY=0;entryDx=0;entryDy=0;" edge="1" parent="1" source="HV80x1tlVx-LBfXgwce5-68" target="3EkjWw5t4jy6jvHcOLfg-4">
          <mxGeometry relative="1" as="geometry">
            <mxPoint x="2390" y="710" as="targetPoint" />
          </mxGeometry>
        </mxCell>
        <mxCell id="HV80x1tlVx-LBfXgwce5-68" value="Sistema - Exibe detalhes do formuláio selecionado" style="rounded=1;whiteSpace=wrap;html=1;fillColor=#CCE5FF;" vertex="1" parent="1">
          <mxGeometry x="1970" y="330" width="120" height="60" as="geometry" />
        </mxCell>
        <mxCell id="HV80x1tlVx-LBfXgwce5-81" style="edgeStyle=orthogonalEdgeStyle;rounded=0;orthogonalLoop=1;jettySize=auto;html=1;exitX=1;exitY=0.5;exitDx=0;exitDy=0;entryX=0.5;entryY=0;entryDx=0;entryDy=0;" edge="1" parent="1" source="HV80x1tlVx-LBfXgwce5-70" target="3EkjWw5t4jy6jvHcOLfg-4">
          <mxGeometry relative="1" as="geometry">
            <mxPoint x="2390" y="710" as="targetPoint" />
          </mxGeometry>
        </mxCell>
        <mxCell id="HV80x1tlVx-LBfXgwce5-70" value="Sistema - Exibe feedback do coo" style="rounded=1;whiteSpace=wrap;html=1;fillColor=#CCE5FF;" vertex="1" parent="1">
          <mxGeometry x="2200" y="407" width="120" height="60" as="geometry" />
        </mxCell>
        <mxCell id="HV80x1tlVx-LBfXgwce5-75" style="edgeStyle=orthogonalEdgeStyle;rounded=0;orthogonalLoop=1;jettySize=auto;html=1;exitX=1;exitY=0.5;exitDx=0;exitDy=0;entryX=0;entryY=0.5;entryDx=0;entryDy=0;" edge="1" parent="1" source="HV80x1tlVx-LBfXgwce5-72" target="HV80x1tlVx-LBfXgwce5-70">
          <mxGeometry relative="1" as="geometry" />
        </mxCell>
        <mxCell id="HV80x1tlVx-LBfXgwce5-76" value="Formulário Indeferido" style="edgeLabel;html=1;align=center;verticalAlign=middle;resizable=0;points=[];" vertex="1" connectable="0" parent="HV80x1tlVx-LBfXgwce5-75">
          <mxGeometry x="-0.0181" y="1" relative="1" as="geometry">
            <mxPoint as="offset" />
          </mxGeometry>
        </mxCell>
        <mxCell id="HV80x1tlVx-LBfXgwce5-77" style="edgeStyle=orthogonalEdgeStyle;rounded=0;orthogonalLoop=1;jettySize=auto;html=1;exitX=0.5;exitY=1;exitDx=0;exitDy=0;entryX=0.5;entryY=0;entryDx=0;entryDy=0;" edge="1" parent="1" source="HV80x1tlVx-LBfXgwce5-72" target="HV80x1tlVx-LBfXgwce5-79">
          <mxGeometry relative="1" as="geometry" />
        </mxCell>
        <mxCell id="HV80x1tlVx-LBfXgwce5-78" value="Formulário Deferido ou Em Análise" style="edgeLabel;html=1;align=center;verticalAlign=middle;resizable=0;points=[];" vertex="1" connectable="0" parent="HV80x1tlVx-LBfXgwce5-77">
          <mxGeometry x="-0.9336" relative="1" as="geometry">
            <mxPoint y="40" as="offset" />
          </mxGeometry>
        </mxCell>
        <mxCell id="HV80x1tlVx-LBfXgwce5-72" value="" style="rhombus;whiteSpace=wrap;html=1;" vertex="1" parent="1">
          <mxGeometry x="2012.5" y="417" width="35" height="40" as="geometry" />
        </mxCell>
        <mxCell id="HV80x1tlVx-LBfXgwce5-82" style="edgeStyle=orthogonalEdgeStyle;rounded=0;orthogonalLoop=1;jettySize=auto;html=1;exitX=0.5;exitY=1;exitDx=0;exitDy=0;entryX=0;entryY=0.5;entryDx=0;entryDy=0;" edge="1" parent="1" source="HV80x1tlVx-LBfXgwce5-79" target="3EkjWw5t4jy6jvHcOLfg-4">
          <mxGeometry relative="1" as="geometry" />
        </mxCell>
        <mxCell id="HV80x1tlVx-LBfXgwce5-79" value="Sistema - Informa que não há mensagens recebidas" style="rounded=1;whiteSpace=wrap;html=1;fillColor=#CCE5FF;" vertex="1" parent="1">
          <mxGeometry x="1970" y="540" width="120" height="60" as="geometry" />
        </mxCell>
      </root>
    </mxGraphModel>
  </diagram>
</mxfile>
